<svg id="visual" viewBox="0 0 900 600" width="900" height="600" xmlns="http://www.w3.org/2000/svg" xmlns:xlink="http://www.w3.org/1999/xlink" version="1.1"><rect x="0" y="0" width="900" height="600" fill="#001220"></rect><path d="M0 365L21.5 364.7C43 364.3 86 363.7 128.8 370.7C171.7 377.7 214.3 392.3 257.2 391.2C300 390 343 373 385.8 367.8C428.7 362.7 471.3 369.3 514.2 383.8C557 398.3 600 420.7 642.8 421.8C685.7 423 728.3 403 771.2 397.8C814 392.7 857 402.3 878.5 407.2L900 412L900 601L878.5 601C857 601 814 601 771.2 601C728.3 601 685.7 601 642.8 601C600 601 557 601 514.2 601C471.3 601 428.7 601 385.8 601C343 601 300 601 257.2 601C214.3 601 171.7 601 128.8 601C86 601 43 601 21.5 601L0 601Z" fill="#69dbfa"></path><path d="M0 467L21.5 465.2C43 463.3 86 459.7 128.8 448.2C171.7 436.7 214.3 417.3 257.2 413.3C300 409.3 343 420.7 385.8 430.5C428.7 440.3 471.3 448.7 514.2 454.2C557 459.7 600 462.3 642.8 455.3C685.7 448.3 728.3 431.7 771.2 421.8C814 412 857 409 878.5 407.5L900 406L900 601L878.5 601C857 601 814 601 771.2 601C728.3 601 685.7 601 642.8 601C600 601 557 601 514.2 601C471.3 601 428.7 601 385.8 601C343 601 300 601 257.2 601C214.3 601 171.7 601 128.8 601C86 601 43 601 21.5 601L0 601Z" fill="#27a8df"></path><path d="M0 464L21.5 459.8C43 455.7 86 447.3 128.8 444.7C171.7 442 214.3 445 257.2 453.5C300 462 343 476 385.8 476.2C428.7 476.3 471.3 462.7 514.2 454.3C557 446 600 443 642.8 442C685.7 441 728.3 442 771.2 453.3C814 464.7 857 486.3 878.5 497.2L900 508L900 601L878.5 601C857 601 814 601 771.2 601C728.3 601 685.7 601 642.8 601C600 601 557 601 514.2 601C471.3 601 428.7 601 385.8 601C343 601 300 601 257.2 601C214.3 601 171.7 601 128.8 601C86 601 43 601 21.5 601L0 601Z" fill="#0075be"></path><path d="M0 499L21.5 504.3C43 509.7 86 520.3 128.8 517.5C171.7 514.7 214.3 498.3 257.2 497.7C300 497 343 512 385.8 517C428.7 522 471.3 517 514.2 514C557 511 600 510 642.8 514.8C685.7 519.7 728.3 530.3 771.2 533.2C814 536 857 531 878.5 528.5L900 526L900 601L878.5 601C857 601 814 601 771.2 601C728.3 601 685.7 601 642.8 601C600 601 557 601 514.2 601C471.3 601 428.7 601 385.8 601C343 601 300 601 257.2 601C214.3 601 171.7 601 128.8 601C86 601 43 601 21.5 601L0 601Z" fill="#004296"></path><path d="M0 543L21.5 545.5C43 548 86 553 128.8 556.5C171.7 560 214.3 562 257.2 558.7C300 555.3 343 546.7 385.8 542.3C428.7 538 471.3 538 514.2 541.2C557 544.3 600 550.7 642.8 554.2C685.7 557.7 728.3 558.3 771.2 557.2C814 556 857 553 878.5 551.5L900 550L900 601L878.5 601C857 601 814 601 771.2 601C728.3 601 685.7 601 642.8 601C600 601 557 601 514.2 601C471.3 601 428.7 601 385.8 601C343 601 300 601 257.2 601C214.3 601 171.7 601 128.8 601C86 601 43 601 21.5 601L0 601Z" fill="#000c66"></path></svg>