<svg id="visual" viewBox="0 0 900 600" width="900" height="600" xmlns="http://www.w3.org/2000/svg" xmlns:xlink="http://www.w3.org/1999/xlink" version="1.1"><rect x="0" y="0" width="900" height="600" fill="#001220"></rect><path d="M0 369L21.5 379C43 389 86 409 128.8 410C171.7 411 214.3 393 257.2 386.8C300 380.7 343 386.3 385.8 396.7C428.7 407 471.3 422 514.2 416C557 410 600 383 642.8 374C685.7 365 728.3 374 771.2 377C814 380 857 377 878.5 375.5L900 374L900 601L878.5 601C857 601 814 601 771.2 601C728.3 601 685.7 601 642.8 601C600 601 557 601 514.2 601C471.3 601 428.7 601 385.8 601C343 601 300 601 257.2 601C214.3 601 171.7 601 128.8 601C86 601 43 601 21.5 601L0 601Z" fill="#69dbfa"></path><path d="M0 433L21.5 428C43 423 86 413 128.8 410.7C171.7 408.3 214.3 413.7 257.2 414.2C300 414.7 343 410.3 385.8 413.2C428.7 416 471.3 426 514.2 429.3C557 432.7 600 429.3 642.8 435.8C685.7 442.3 728.3 458.7 771.2 459.2C814 459.7 857 444.3 878.5 436.7L900 429L900 601L878.5 601C857 601 814 601 771.2 601C728.3 601 685.7 601 642.8 601C600 601 557 601 514.2 601C471.3 601 428.7 601 385.8 601C343 601 300 601 257.2 601C214.3 601 171.7 601 128.8 601C86 601 43 601 21.5 601L0 601Z" fill="#27a8df"></path><path d="M0 447L21.5 452.8C43 458.7 86 470.3 128.8 470.8C171.7 471.3 214.3 460.7 257.2 453.7C300 446.7 343 443.3 385.8 447.5C428.7 451.7 471.3 463.3 514.2 472.8C557 482.3 600 489.7 642.8 483.3C685.7 477 728.3 457 771.2 456.8C814 456.7 857 476.3 878.5 486.2L900 496L900 601L878.5 601C857 601 814 601 771.2 601C728.3 601 685.7 601 642.8 601C600 601 557 601 514.2 601C471.3 601 428.7 601 385.8 601C343 601 300 601 257.2 601C214.3 601 171.7 601 128.8 601C86 601 43 601 21.5 601L0 601Z" fill="#0075be"></path><path d="M0 542L21.5 534.5C43 527 86 512 128.8 502.2C171.7 492.3 214.3 487.7 257.2 492.2C300 496.7 343 510.3 385.8 514.5C428.7 518.7 471.3 513.3 514.2 510.2C557 507 600 506 642.8 506.3C685.7 506.7 728.3 508.3 771.2 513.5C814 518.7 857 527.3 878.5 531.7L900 536L900 601L878.5 601C857 601 814 601 771.2 601C728.3 601 685.7 601 642.8 601C600 601 557 601 514.2 601C471.3 601 428.7 601 385.8 601C343 601 300 601 257.2 601C214.3 601 171.7 601 128.8 601C86 601 43 601 21.5 601L0 601Z" fill="#004296"></path><path d="M0 565L21.5 562.7C43 560.3 86 555.7 128.8 555.5C171.7 555.3 214.3 559.7 257.2 558.2C300 556.7 343 549.3 385.8 547C428.7 544.7 471.3 547.3 514.2 544.5C557 541.7 600 533.3 642.8 532C685.7 530.7 728.3 536.3 771.2 542.2C814 548 857 554 878.5 557L900 560L900 601L878.5 601C857 601 814 601 771.2 601C728.3 601 685.7 601 642.8 601C600 601 557 601 514.2 601C471.3 601 428.7 601 385.8 601C343 601 300 601 257.2 601C214.3 601 171.7 601 128.8 601C86 601 43 601 21.5 601L0 601Z" fill="#000c66"></path></svg>