<svg id="visual" viewBox="0 0 900 600" width="900" height="600" xmlns="http://www.w3.org/2000/svg" xmlns:xlink="http://www.w3.org/1999/xlink" version="1.1"><rect x="0" y="0" width="900" height="600" fill="#001220"></rect><path d="M0 447L21.5 443.2C43 439.3 86 431.7 128.8 421C171.7 410.3 214.3 396.7 257.2 399.2C300 401.7 343 420.3 385.8 419C428.7 417.7 471.3 396.3 514.2 396.7C557 397 600 419 642.8 419.2C685.7 419.3 728.3 397.7 771.2 386.5C814 375.3 857 374.7 878.5 374.3L900 374L900 601L878.5 601C857 601 814 601 771.2 601C728.3 601 685.7 601 642.8 601C600 601 557 601 514.2 601C471.3 601 428.7 601 385.8 601C343 601 300 601 257.2 601C214.3 601 171.7 601 128.8 601C86 601 43 601 21.5 601L0 601Z" fill="#69dbfa"></path><path d="M0 395L21.5 395.3C43 395.7 86 396.3 128.8 399.8C171.7 403.3 214.3 409.7 257.2 413.8C300 418 343 420 385.8 428.3C428.7 436.7 471.3 451.3 514.2 460.5C557 469.7 600 473.3 642.8 465.3C685.7 457.3 728.3 437.7 771.2 430.5C814 423.3 857 428.7 878.5 431.3L900 434L900 601L878.5 601C857 601 814 601 771.2 601C728.3 601 685.7 601 642.8 601C600 601 557 601 514.2 601C471.3 601 428.7 601 385.8 601C343 601 300 601 257.2 601C214.3 601 171.7 601 128.8 601C86 601 43 601 21.5 601L0 601Z" fill="#27a8df"></path><path d="M0 480L21.5 478.2C43 476.3 86 472.7 128.8 469C171.7 465.3 214.3 461.7 257.2 456.8C300 452 343 446 385.8 446C428.7 446 471.3 452 514.2 463.8C557 475.7 600 493.3 642.8 496.7C685.7 500 728.3 489 771.2 482.5C814 476 857 474 878.5 473L900 472L900 601L878.5 601C857 601 814 601 771.2 601C728.3 601 685.7 601 642.8 601C600 601 557 601 514.2 601C471.3 601 428.7 601 385.8 601C343 601 300 601 257.2 601C214.3 601 171.7 601 128.8 601C86 601 43 601 21.5 601L0 601Z" fill="#0075be"></path><path d="M0 540L21.5 538.8C43 537.7 86 535.3 128.8 530.5C171.7 525.7 214.3 518.3 257.2 515.7C300 513 343 515 385.8 519.8C428.7 524.7 471.3 532.3 514.2 534.3C557 536.3 600 532.7 642.8 526.3C685.7 520 728.3 511 771.2 511.3C814 511.7 857 521.3 878.5 526.2L900 531L900 601L878.5 601C857 601 814 601 771.2 601C728.3 601 685.7 601 642.8 601C600 601 557 601 514.2 601C471.3 601 428.7 601 385.8 601C343 601 300 601 257.2 601C214.3 601 171.7 601 128.8 601C86 601 43 601 21.5 601L0 601Z" fill="#004296"></path><path d="M0 549L21.5 553C43 557 86 565 128.8 565.5C171.7 566 214.3 559 257.2 558.2C300 557.3 343 562.7 385.8 559.3C428.7 556 471.3 544 514.2 542C557 540 600 548 642.8 552.3C685.7 556.7 728.3 557.3 771.2 555.5C814 553.7 857 549.3 878.5 547.2L900 545L900 601L878.5 601C857 601 814 601 771.2 601C728.3 601 685.7 601 642.8 601C600 601 557 601 514.2 601C471.3 601 428.7 601 385.8 601C343 601 300 601 257.2 601C214.3 601 171.7 601 128.8 601C86 601 43 601 21.5 601L0 601Z" fill="#000c66"></path></svg>